HIERARCHY
ROOT hip
{
  OFFSET -42.9328 11.8768 -106.27
  CHANNELS 6 Xposition Yposition Zposition Zrotation Xrotation Yrotation
  JOINT abdomen
  {
    OFFSET 0 20.6881 -0.73152
    CHANNELS 3 Zrotation Xrotation Yrotation
    JOINT chest
    {
      OFFSET 0 11.7043 -0.48768
      CHANNELS 3 Zrotation Xrotation Yrotation
      JOINT neck
      {
        OFFSET 0 22.1894 -2.19456
        CHANNELS 3 Zrotation Xrotation Yrotation
        JOINT head
        {
          OFFSET -0.24384 7.07133 1.2192
          CHANNELS 3 Zrotation Xrotation Yrotation
          JOINT leftEye
          {
            OFFSET 4.14528 8.04674 8.04672
            CHANNELS 3 Zrotation Xrotation Yrotation
            End Site
            {
              OFFSET 1 0 0
            }
          }
          JOINT rightEye
          {
            OFFSET -3.6576 8.04674 8.04672
            CHANNELS 3 Zrotation Xrotation Yrotation
            End Site
            {
              OFFSET 1 0 0
            }
          }
        }
      }
      JOINT rCollar
      {
        OFFSET -2.68224 19.2634 -4.8768
        CHANNELS 3 Zrotation Xrotation Yrotation
        JOINT rShldr
        {
          OFFSET -8.77824 -1.95073 1.46304
          CHANNELS 3 Zrotation Xrotation Yrotation
          JOINT rForeArm
          {
            OFFSET -28.1742 -1.7115 0.48768
            CHANNELS 3 Zrotation Xrotation Yrotation
            JOINT rHand
            {
              OFFSET -22.5879 0.773209 7.07136
              CHANNELS 3 Zrotation Xrotation Yrotation
              JOINT rThumb1
              {
                OFFSET -1.2192 -0.487915 3.41376
                CHANNELS 3 Zrotation Xrotation Yrotation
                JOINT rThumb2
                {
                  OFFSET -3.37035 -0.52449 3.41376
                  CHANNELS 3 Zrotation Xrotation Yrotation
                  End Site
                  {
                    OFFSET -1.78271 -1.18214 1.43049
                  }
                }
              }
              JOINT rIndex1
              {
                OFFSET -7.75947 0.938293 5.60832
                CHANNELS 3 Zrotation Xrotation Yrotation
                JOINT rIndex2
                {
                  OFFSET -2.54057 -0.884171 1.56538
                  CHANNELS 3 Zrotation Xrotation Yrotation
                  End Site
                  {
                    OFFSET -1.62519 -0.234802 1.16502
                  }
                }
              }
              JOINT rMid1
              {
                OFFSET -8.24714 1.18213 3.41376
                CHANNELS 3 Zrotation Xrotation Yrotation
                JOINT rMid2
                {
                  OFFSET -3.10165 -0.590103 1.0647
                  CHANNELS 3 Zrotation Xrotation Yrotation
                  End Site
                  {
                    OFFSET -2.48547 -0.328903 0.83742
                  }
                }
              }
              JOINT rRing1
              {
                OFFSET -8.82822 0.546677 1.51678
                CHANNELS 3 Zrotation Xrotation Yrotation
                JOINT rRing2
                {
                  OFFSET -2.60934 -0.819778 -0.0198488
                  CHANNELS 3 Zrotation Xrotation Yrotation
                  End Site
                  {
                    OFFSET -2.33842 -0.294052 0.168128
                  }
                }
              }
              JOINT rPinky1
              {
                OFFSET -8.27202 -0.0477905 -0.4584
                CHANNELS 3 Zrotation Xrotation Yrotation
                JOINT rPinky2
                {
                  OFFSET -1.82734 -0.647385 -0.700984
                  CHANNELS 3 Zrotation Xrotation Yrotation
                  End Site
                  {
                    OFFSET -1.69225 -0.51767 -0.607171
                  }
                }
              }
            }
          }
        }
      }
      JOINT lCollar
      {
        OFFSET 2.68224 19.2634 -4.8768
        CHANNELS 3 Zrotation Xrotation Yrotation
        JOINT lShldr
        {
          OFFSET 8.77824 -1.95073 1.46304
          CHANNELS 3 Zrotation Xrotation Yrotation
          JOINT lForeArm
          {
            OFFSET 28.1742 -1.7115 0.48768
            CHANNELS 3 Zrotation Xrotation Yrotation
            JOINT lHand
            {
              OFFSET 22.5879 0.773209 7.07136
              CHANNELS 3 Zrotation Xrotation Yrotation
              JOINT lThumb1
              {
                OFFSET 1.2192 -0.487915 3.41376
                CHANNELS 3 Zrotation Xrotation Yrotation
                JOINT lThumb2
                {
                  OFFSET 3.37035 -0.52449 3.41376
                  CHANNELS 3 Zrotation Xrotation Yrotation
                  End Site
                  {
                    OFFSET 1.78271 -1.18214 1.43049
                  }
                }
              }
              JOINT lIndex1
              {
                OFFSET 7.75947 0.938293 5.60832
                CHANNELS 3 Zrotation Xrotation Yrotation
                JOINT lIndex2
                {
                  OFFSET 2.54057 -0.884171 1.56538
                  CHANNELS 3 Zrotation Xrotation Yrotation
                  End Site
                  {
                    OFFSET 1.62519 -0.234802 1.16502
                  }
                }
              }
              JOINT lMid1
              {
                OFFSET 8.24714 1.18213 3.41376
                CHANNELS 3 Zrotation Xrotation Yrotation
                JOINT lMid2
                {
                  OFFSET 3.10165 -0.590103 1.0647
                  CHANNELS 3 Zrotation Xrotation Yrotation
                  End Site
                  {
                    OFFSET 2.48547 -0.328903 0.83742
                  }
                }
              }
              JOINT lRing1
              {
                OFFSET 8.82822 0.546677 1.51678
                CHANNELS 3 Zrotation Xrotation Yrotation
                JOINT lRing2
                {
                  OFFSET 2.60934 -0.819778 -0.0198488
                  CHANNELS 3 Zrotation Xrotation Yrotation
                  End Site
                  {
                    OFFSET 2.33842 -0.294052 0.168128
                  }
                }
              }
              JOINT lPinky1
              {
                OFFSET 8.27202 -0.0477905 -0.4584
                CHANNELS 3 Zrotation Xrotation Yrotation
                JOINT lPinky2
                {
                  OFFSET 1.82734 -0.647385 -0.700984
                  CHANNELS 3 Zrotation Xrotation Yrotation
                  End Site
                  {
                    OFFSET 1.69225 -0.51767 -0.607171
                  }
                }
              }
            }
          }
        }
      }
    }
  }
  JOINT rButtock
  {
    OFFSET -8.77824 4.35084 1.2192
    CHANNELS 3 Zrotation Xrotation Yrotation
    JOINT rThigh
    {
      OFFSET 0 -1.70687 -2.19456
      CHANNELS 3 Zrotation Xrotation Yrotation
      JOINT rShin
      {
        OFFSET 0 -36.8199 0.73152
        CHANNELS 3 Zrotation Xrotation Yrotation
        JOINT rFoot
        {
          OFFSET 0.73152 -45.1104 -5.12064
          CHANNELS 3 Zrotation Xrotation Yrotation
          End Site
          {
            OFFSET -1.1221 -3.69964 12.103
          }
        }
      }
    }
  }
  JOINT lButtock
  {
    OFFSET 8.77824 4.35084 1.2192
    CHANNELS 3 Zrotation Xrotation Yrotation
    JOINT lThigh
    {
      OFFSET 0 -1.70687 -2.19456
      CHANNELS 3 Zrotation Xrotation Yrotation
      JOINT lShin
      {
        OFFSET 0 -36.8199 0.73152
        CHANNELS 3 Zrotation Xrotation Yrotation
        JOINT lFoot
        {
          OFFSET -0.73152 -45.1104 -5.12064
          CHANNELS 3 Zrotation Xrotation Yrotation
          End Site
          {
            OFFSET 1.1221 -3.69964 12.103
          }
        }
      }
    }
  }
}
MOTION
Frames:	4
Frame Time:	0.00833333
43.4384 14.9978 21.8671 -21.1132 -66.0197 44.7167 11.478 33.4593 -5.58007 5.08135 -0.181426 -0.59846 -4.40537 19.5659 -5.92648 13.6798 -34.0714 -8.0299 -0 0 0 -0 0 0 -3.73478e-013 3.94463e-013 1.57611e-013 37.6137 -12.1481 -20.0352 -7.79806 -2.90817 13.731 -0.781022 24.2649 3.6318 -9.89491e-010 1.25064e-009 1.56485e-009 -1.67871e-009 2.11549e-009 2.72536e-009 -9.89483e-010 1.25064e-009 1.56484e-009 7.73091 5.47488 0.417314 -9.89491e-010 1.25064e-009 1.56485e-009 2.90554 0.965183 0.102902 -9.89483e-010 1.25064e-009 1.56485e-009 10.2786 0.731801 0.0259123 -9.89495e-010 1.25064e-009 1.56486e-009 2.22167 -0.733487 -0.20892 -3.73762e-013 3.94512e-013 1.57278e-013 -1.26906 32.4574 -27.3676 22.7364 -16.9067 -45.8189 0.0270665 -4.56158 0.642477 -1.57942e-009 3.99479e-010 -1.53332e-009 -2.72144e-009 7.09227e-010 -2.65546e-009 -1.57942e-009 3.99482e-010 -1.53329e-009 -7.73091 5.47488 -0.417314 -1.57942e-009 3.99474e-010 -1.53331e-009 -2.90554 0.965183 -0.102902 -1.57943e-009 3.9947e-010 -1.53331e-009 -10.2786 0.731801 -0.0259123 -1.57941e-009 3.99478e-010 -1.53331e-009 -2.22167 -0.733487 0.20892 -2.03217e-016 0 -3.88251e-019 -25.758 -52.3793 -18.3615 -175.389 74.3985 176.645 -6.61731 -15.9855 -10.0964 2.03217e-016 0 3.88251e-019 103.496 -43.0528 118.185 177.154 37.8699 -175.277 7.69155 34.3118 -20.441 
44.0531 15.1865 21.4717 -21.8011 -67.8564 43.9784 12.1619 33.62 -6.5731 5.58815 0.179687 -0.8341 -4.52524 19.4722 -5.75693 14.0138 -33.0561 -7.69977 -0 0 0 -0 0 0 -3.04117e-014 1.11303e-013 1.411e-013 38.9434 -11.0395 -20.2146 -8.15366 -3.09116 14.3852 -0.70084 23.0089 3.42209 -5.50985e-010 3.4806e-010 1.81964e-009 -9.19239e-010 5.53803e-010 3.15418e-009 -5.50978e-010 3.48061e-010 1.81962e-009 7.73091 5.47488 0.417314 -5.50985e-010 3.48061e-010 1.81964e-009 2.90554 0.965183 0.102902 -5.50977e-010 3.48061e-010 1.81964e-009 10.2786 0.731801 0.0259123 -5.5099e-010 3.48063e-010 1.81965e-009 2.22167 -0.733487 -0.20892 -3.06175e-014 1.11335e-013 1.40876e-013 -0.351521 32.5118 -27.9537 22.4079 -16.3851 -44.8926 0.035455 -5.27927 0.744078 -1.65504e-010 1.80014e-010 -3.17306e-010 -2.85462e-010 3.07545e-010 -5.45905e-010 -1.65501e-010 1.80018e-010 -3.17283e-010 -7.73091 5.47488 -0.417314 -1.65501e-010 1.80012e-010 -3.17301e-010 -2.90554 0.965183 -0.102902 -1.65513e-010 1.80007e-010 -3.17303e-010 -10.2786 0.731801 -0.0259123 -1.65495e-010 1.80014e-010 -3.17305e-010 -2.22167 -0.733487 0.20892 -2.03217e-016 0 -3.88251e-019 -26.0887 -55.1305 -20.6939 -174.669 76.73 175.765 -6.60882 -15.7934 -10.6637 2.03217e-016 0 3.88251e-019 101.191 -43.3522 114.912 177.144 38.5964 -175.307 7.32976 33.4741 -20.3805 
44.6046 15.3267 21.0742 -22.3668 -69.6372 43.263 12.6921 33.8251 -7.5685 6.10567 0.550436 -1.08783 -4.61882 19.3629 -5.57632 14.2882 -32.0656 -7.36648 -0 0 0 -0 0 0 3.17969e-013 -1.67085e-013 1.22458e-013 40.0999 -9.84626 -20.3937 -8.57513 -3.31586 15.1615 -0.600509 21.3536 3.15116 -1.97322e-010 -3.64879e-010 2.03974e-009 -3.06848e-010 -6.78547e-010 3.52449e-009 -1.97316e-010 -3.64878e-010 2.03972e-009 7.73091 5.47488 0.417314 -1.97321e-010 -3.64879e-010 2.03974e-009 2.90554 0.965183 0.102902 -1.97313e-010 -3.64879e-010 2.03974e-009 10.2786 0.731801 0.0259123 -1.97327e-010 -3.64878e-010 2.03975e-009 2.22167 -0.733487 -0.20892 3.17848e-013 -1.67072e-013 1.22344e-013 0.420849 32.6469 -28.4379 22.063 -15.8538 -43.9512 0.0428301 -5.88577 0.830116 1.30661e-009 2.67538e-010 7.79367e-010 2.25075e-009 4.36454e-010 1.35698e-009 1.30661e-009 2.67542e-010 7.79388e-010 -7.73091 5.47488 -0.417314 1.30661e-009 2.67538e-010 7.79372e-010 -2.90554 0.965183 -0.102902 1.3066e-009 2.67533e-010 7.79368e-010 -10.2786 0.731801 -0.0259123 1.30662e-009 2.67539e-010 7.79366e-010 -2.22167 -0.733487 0.20892 -2.03217e-016 0 -3.88251e-019 -26.9226 -57.7655 -23.2025 -173.537 79.2326 174.442 -6.52347 -15.5031 -11.1268 2.03217e-016 0 3.88251e-019 98.3766 -43.2339 111.006 177.133 39.2817 -175.336 6.78062 32.1086 -20.4345 
45.1215 15.4089 20.6463 -22.4715 -71.3345 42.9759 12.9986 34.1111 -8.58318 6.59952 0.902857 -1.36163 -4.66751 19.3057 -5.39786 14.5003 -31.2173 -7.0433 -0 0 0 -0 0 0 5.53392e-013 -3.62583e-013 7.31528e-014 41.094 -8.6293 -20.57 -9.04796 -3.58254 16.0277 -0.486084 19.4205 2.84009 4.43725e-012 -8.32817e-010 2.08158e-009 4.06964e-011 -1.48429e-009 3.59074e-009 4.44204e-012 -8.32815e-010 2.08156e-009 7.73091 5.47488 0.417314 4.43881e-012 -8.32817e-010 2.08158e-009 2.90554 0.965183 0.102902 4.44691e-012 -8.32817e-010 2.08159e-009 10.2786 0.731801 0.0259123 4.4319e-012 -8.32816e-010 2.0816e-009 2.22167 -0.733487 -0.20892 5.53329e-013 -3.62583e-013 7.31031e-014 1.02468 32.8192 -28.8016 21.717 -15.3381 -43.0314 0.0508776 -6.4237 0.906632 2.15149e-009 1.84933e-010 1.49088e-009 3.70556e-009 2.79867e-010 2.59089e-009 2.1515e-009 1.84938e-010 1.4909e-009 -7.73091 5.47488 -0.417314 2.1515e-009 1.84935e-010 1.49088e-009 -2.90554 0.965183 -0.102902 2.15149e-009 1.84929e-010 1.49088e-009 -10.2786 0.731801 -0.0259123 2.15151e-009 1.84935e-010 1.49088e-009 -2.22167 -0.733487 0.20892 -2.03217e-016 0 -3.88251e-019 -28.2155 -60.1621 -25.6769 -171.621 81.9128 172.309 -6.36408 -15.2528 -11.3967 2.03217e-016 0 3.88251e-019 94.7683 -42.2408 105.904 177.128 39.8659 -175.4 6.04457 30.0453 -20.9383 
